<mxfile host="65bd71144e">
    <diagram id="wnJHaeVWVRqouhSKW7HH" name="Classes">
        <mxGraphModel dx="487" dy="868" grid="1" gridSize="10" guides="1" tooltips="1" connect="1" arrows="1" fold="1" page="0" pageScale="1" pageWidth="850" pageHeight="1100" background="#FFFFFF" math="0" shadow="0">
            <root>
                <mxCell id="0"/>
                <mxCell id="1" parent="0"/>
                <mxCell id="50" value="" style="rounded=0;whiteSpace=wrap;html=1;fontSize=13;fontColor=#1A1A1A;strokeColor=#1A1A1A;fillColor=#FFFFFF;gradientColor=none;" parent="1" vertex="1">
                    <mxGeometry x="-250" y="-80" width="930" height="430" as="geometry"/>
                </mxCell>
                <mxCell id="22" value="" style="endArrow=none;dashed=1;html=1;fontSize=15;fontColor=#FAA8A8;strokeColor=#1A1A1A;strokeWidth=2;" parent="1" edge="1">
                    <mxGeometry width="50" height="50" relative="1" as="geometry">
                        <mxPoint x="19" y="340" as="sourcePoint"/>
                        <mxPoint x="19" y="110" as="targetPoint"/>
                    </mxGeometry>
                </mxCell>
                <mxCell id="20" style="edgeStyle=none;html=1;exitX=0.5;exitY=1;exitDx=0;exitDy=0;entryX=0.5;entryY=0;entryDx=0;entryDy=0;fontSize=15;fontColor=#FAA8A8;strokeColor=#1A1A1A;" parent="1" source="2" target="12" edge="1">
                    <mxGeometry relative="1" as="geometry">
                        <Array as="points">
                            <mxPoint x="-11" y="140"/>
                            <mxPoint x="-150" y="140"/>
                        </Array>
                    </mxGeometry>
                </mxCell>
                <mxCell id="21" style="edgeStyle=none;html=1;exitX=0.5;exitY=1;exitDx=0;exitDy=0;entryX=0.5;entryY=0;entryDx=0;entryDy=0;fontSize=15;fontColor=#FAA8A8;strokeColor=#1A1A1A;" parent="1" source="2" target="15" edge="1">
                    <mxGeometry relative="1" as="geometry">
                        <Array as="points">
                            <mxPoint x="-11" y="140"/>
                            <mxPoint x="-231" y="140"/>
                            <mxPoint x="-230" y="200"/>
                            <mxPoint x="-230" y="240"/>
                            <mxPoint x="-190" y="240"/>
                            <mxPoint x="-150" y="240"/>
                        </Array>
                    </mxGeometry>
                </mxCell>
                <mxCell id="43" style="edgeStyle=none;html=1;exitX=0.5;exitY=1;exitDx=0;exitDy=0;entryX=0.5;entryY=0;entryDx=0;entryDy=0;fontSize=15;fontColor=#FFFFFF;strokeColor=#1A1A1A;" parent="1" source="2" target="16" edge="1">
                    <mxGeometry relative="1" as="geometry">
                        <Array as="points">
                            <mxPoint x="49" y="140"/>
                            <mxPoint x="120" y="140"/>
                            <mxPoint x="190" y="140"/>
                        </Array>
                    </mxGeometry>
                </mxCell>
                <mxCell id="2" value="&lt;b&gt;AttributionModel&lt;/b&gt;" style="rounded=1;whiteSpace=wrap;html=1;fillColor=#FAA8A8;strokeColor=#1A1A1A;fontColor=#000000;" parent="1" vertex="1">
                    <mxGeometry x="-41" y="40" width="120" height="50" as="geometry"/>
                </mxCell>
                <mxCell id="5" style="edgeStyle=none;html=1;exitX=0.5;exitY=1;exitDx=0;exitDy=0;entryX=0.5;entryY=0;entryDx=0;entryDy=0;fontColor=#000000;strokeColor=#1A1A1A;" parent="1" source="3" target="4" edge="1">
                    <mxGeometry relative="1" as="geometry"/>
                </mxCell>
                <mxCell id="37" style="edgeStyle=none;html=1;exitX=0.5;exitY=1;exitDx=0;exitDy=0;fontSize=15;fontColor=#FFFFFF;strokeColor=#1A1A1A;" parent="1" source="3" target="36" edge="1">
                    <mxGeometry relative="1" as="geometry">
                        <Array as="points">
                            <mxPoint x="400" y="120"/>
                            <mxPoint x="320" y="120"/>
                            <mxPoint x="320" y="220"/>
                            <mxPoint x="400" y="220"/>
                        </Array>
                    </mxGeometry>
                </mxCell>
                <mxCell id="3" value="&lt;b&gt;FeatureAttribution&lt;/b&gt;" style="rounded=1;whiteSpace=wrap;html=1;fillColor=#82AEFA;strokeColor=#1A1A1A;fontColor=#000000;gradientColor=none;" parent="1" vertex="1">
                    <mxGeometry x="340" y="40" width="120" height="50" as="geometry"/>
                </mxCell>
                <mxCell id="33" style="edgeStyle=none;html=1;exitX=1;exitY=0.5;exitDx=0;exitDy=0;entryX=0;entryY=0.5;entryDx=0;entryDy=0;fontSize=15;fontColor=#FFFFFF;strokeColor=#1A1A1A;" parent="1" source="4" target="7" edge="1">
                    <mxGeometry relative="1" as="geometry">
                        <Array as="points">
                            <mxPoint x="508" y="169"/>
                            <mxPoint x="508" y="112"/>
                        </Array>
                    </mxGeometry>
                </mxCell>
                <mxCell id="34" style="edgeStyle=none;html=1;exitX=1;exitY=0.5;exitDx=0;exitDy=0;entryX=0;entryY=0.5;entryDx=0;entryDy=0;fontSize=15;fontColor=#FFFFFF;strokeColor=#1A1A1A;" parent="1" source="4" target="6" edge="1">
                    <mxGeometry relative="1" as="geometry"/>
                </mxCell>
                <mxCell id="35" style="edgeStyle=none;html=1;exitX=1;exitY=0.5;exitDx=0;exitDy=0;entryX=0;entryY=0.5;entryDx=0;entryDy=0;fontSize=15;fontColor=#FFFFFF;strokeColor=#1A1A1A;" parent="1" source="4" target="8" edge="1">
                    <mxGeometry relative="1" as="geometry">
                        <Array as="points">
                            <mxPoint x="508" y="169"/>
                            <mxPoint x="508" y="226"/>
                        </Array>
                    </mxGeometry>
                </mxCell>
                <mxCell id="4" value="&lt;b&gt;GradientAttribution&lt;br&gt;&lt;/b&gt;" style="rounded=1;whiteSpace=wrap;html=1;fillColor=#82AEFA;strokeColor=#1A1A1A;fontColor=#000000;" parent="1" vertex="1">
                    <mxGeometry x="340" y="144" width="120" height="50" as="geometry"/>
                </mxCell>
                <mxCell id="6" value="&lt;b&gt;SaliencyAttribution&lt;br&gt;&lt;/b&gt;" style="rounded=1;whiteSpace=wrap;html=1;fillColor=#3C6CEF;strokeColor=#1A1A1A;fontColor=#ffffff;" parent="1" vertex="1">
                    <mxGeometry x="538" y="149" width="120" height="40" as="geometry"/>
                </mxCell>
                <mxCell id="7" value="&lt;b&gt;IntegratedGradients&lt;br&gt;Attribution&lt;br&gt;&lt;/b&gt;" style="rounded=1;whiteSpace=wrap;html=1;fillColor=#3C6CEF;strokeColor=#1A1A1A;fontColor=#ffffff;" parent="1" vertex="1">
                    <mxGeometry x="538" y="94" width="120" height="40" as="geometry"/>
                </mxCell>
                <mxCell id="8" value="&lt;b&gt;...&lt;br&gt;&lt;/b&gt;" style="rounded=1;whiteSpace=wrap;html=1;fillColor=#3C6CEF;strokeColor=#1A1A1A;fontColor=#ffffff;" parent="1" vertex="1">
                    <mxGeometry x="538" y="204" width="120" height="40" as="geometry"/>
                </mxCell>
                <mxCell id="25" style="edgeStyle=none;html=1;exitX=1;exitY=0.5;exitDx=0;exitDy=0;entryX=0;entryY=0.5;entryDx=0;entryDy=0;fontSize=15;fontColor=#FAA8A8;strokeColor=#1A1A1A;" parent="1" source="12" target="19" edge="1">
                    <mxGeometry relative="1" as="geometry"/>
                </mxCell>
                <mxCell id="12" value="&lt;b&gt;DecoderOnly&lt;br&gt;AttributionModel&lt;br&gt;&lt;/b&gt;" style="rounded=1;whiteSpace=wrap;html=1;fillColor=#FAA8A8;strokeColor=#1A1A1A;fontColor=#000000;" parent="1" vertex="1">
                    <mxGeometry x="-210" y="159" width="120" height="50" as="geometry"/>
                </mxCell>
                <mxCell id="13" value="&lt;b style=&quot;font-size: 15px&quot;&gt;&lt;font style=&quot;font-size: 15px&quot;&gt;&lt;font&gt;Architectural&lt;br&gt;Classes&lt;/font&gt;&lt;br&gt;&lt;/font&gt;&lt;/b&gt;" style="text;html=1;strokeColor=none;fillColor=none;align=center;verticalAlign=middle;whiteSpace=wrap;rounded=0;fontColor=#1A1A1A;" parent="1" vertex="1">
                    <mxGeometry x="-150" y="90" width="60" height="30" as="geometry"/>
                </mxCell>
                <mxCell id="28" style="edgeStyle=none;html=1;exitX=1;exitY=0.5;exitDx=0;exitDy=0;entryX=0;entryY=0.5;entryDx=0;entryDy=0;fontSize=15;fontColor=#FAA8A8;strokeColor=#1A1A1A;" parent="1" source="15" target="26" edge="1">
                    <mxGeometry relative="1" as="geometry"/>
                </mxCell>
                <mxCell id="15" value="&lt;b&gt;EncoderDecoder&lt;br&gt;AttributionModel&lt;br&gt;&lt;/b&gt;" style="rounded=1;whiteSpace=wrap;html=1;fillColor=#FAA8A8;strokeColor=#1A1A1A;fontColor=#000000;" parent="1" vertex="1">
                    <mxGeometry x="-210" y="257" width="120" height="50" as="geometry"/>
                </mxCell>
                <mxCell id="24" style="edgeStyle=none;html=1;exitX=0;exitY=0.5;exitDx=0;exitDy=0;fontSize=15;fontColor=#FAA8A8;strokeColor=#1A1A1A;" parent="1" source="16" target="19" edge="1">
                    <mxGeometry relative="1" as="geometry"/>
                </mxCell>
                <mxCell id="27" style="edgeStyle=none;html=1;exitX=0;exitY=0.5;exitDx=0;exitDy=0;entryX=1;entryY=0.5;entryDx=0;entryDy=0;fontSize=15;fontColor=#FAA8A8;strokeColor=#1A1A1A;" parent="1" source="16" target="26" edge="1">
                    <mxGeometry relative="1" as="geometry">
                        <mxPoint x="130" y="212" as="sourcePoint"/>
                        <Array as="points">
                            <mxPoint x="109" y="186"/>
                            <mxPoint x="109" y="250"/>
                            <mxPoint x="109" y="282"/>
                        </Array>
                    </mxGeometry>
                </mxCell>
                <mxCell id="16" value="&lt;b&gt;HuggingfaceModel&lt;br&gt;&lt;/b&gt;" style="rounded=1;whiteSpace=wrap;html=1;fillColor=#FAA8A8;strokeColor=#1A1A1A;fontColor=#000000;" parent="1" vertex="1">
                    <mxGeometry x="130" y="159" width="120" height="50" as="geometry"/>
                </mxCell>
                <mxCell id="17" value="&lt;b style=&quot;font-size: 15px&quot;&gt;&lt;font style=&quot;font-size: 15px&quot;&gt;&lt;font&gt;Framework&lt;br&gt;Classes&lt;/font&gt;&lt;br&gt;&lt;/font&gt;&lt;/b&gt;" style="text;html=1;strokeColor=none;fillColor=none;align=center;verticalAlign=middle;whiteSpace=wrap;rounded=0;fontColor=#1A1A1A;" parent="1" vertex="1">
                    <mxGeometry x="120" y="90" width="60" height="30" as="geometry"/>
                </mxCell>
                <mxCell id="19" value="&lt;b&gt;Huggingface&lt;br&gt;DecoderOnlyModel&lt;br&gt;&lt;/b&gt;" style="rounded=1;whiteSpace=wrap;html=1;fillColor=#FA5D5D;strokeColor=#1A1A1A;fontColor=#FFFFFF;" parent="1" vertex="1">
                    <mxGeometry x="-41" y="159" width="120" height="50" as="geometry"/>
                </mxCell>
                <mxCell id="26" value="&lt;b&gt;Huggingface&lt;br&gt;EncoderDecoderModel&lt;br&gt;&lt;/b&gt;" style="rounded=1;whiteSpace=wrap;html=1;fillColor=#FA5D5D;strokeColor=#1A1A1A;fontColor=#FFFFFF;" parent="1" vertex="1">
                    <mxGeometry x="-51.5" y="257" width="141" height="50" as="geometry"/>
                </mxCell>
                <mxCell id="41" style="edgeStyle=none;html=1;exitX=1;exitY=0.5;exitDx=0;exitDy=0;entryX=0;entryY=0.5;entryDx=0;entryDy=0;fontSize=15;fontColor=#FFFFFF;strokeColor=#1A1A1A;" parent="1" source="36" target="40" edge="1">
                    <mxGeometry relative="1" as="geometry"/>
                </mxCell>
                <mxCell id="36" value="&lt;b&gt;AttentionAttribution&lt;br&gt;&lt;/b&gt;" style="rounded=1;whiteSpace=wrap;html=1;fillColor=#82AEFA;strokeColor=#1A1A1A;fontColor=#000000;" parent="1" vertex="1">
                    <mxGeometry x="340" y="257" width="120" height="50" as="geometry"/>
                </mxCell>
                <mxCell id="40" value="&lt;b&gt;...&lt;br&gt;&lt;/b&gt;" style="rounded=1;whiteSpace=wrap;html=1;fillColor=#3C6CEF;strokeColor=#1A1A1A;fontColor=#ffffff;" parent="1" vertex="1">
                    <mxGeometry x="538" y="262" width="120" height="40" as="geometry"/>
                </mxCell>
                <mxCell id="44" value="&lt;font color=&quot;#1a1a1a&quot; size=&quot;1&quot;&gt;&lt;b style=&quot;font-size: 13px&quot;&gt;Model-method connection&lt;/b&gt;&lt;/font&gt;" style="text;html=1;strokeColor=none;fillColor=none;align=center;verticalAlign=middle;whiteSpace=wrap;rounded=0;fontSize=15;fontColor=#FFFFFF;" parent="1" vertex="1">
                    <mxGeometry x="115" y="30" width="200" height="30" as="geometry"/>
                </mxCell>
                <mxCell id="45" value="&lt;b&gt;ClassName&lt;/b&gt;" style="rounded=1;whiteSpace=wrap;html=1;fillColor=#FAF3F3;strokeColor=#1A1A1A;fontColor=#000000;" parent="1" vertex="1">
                    <mxGeometry x="466" y="-70" width="80" height="30" as="geometry"/>
                </mxCell>
                <mxCell id="46" value="&lt;b&gt;&lt;font color=&quot;#ffffff&quot;&gt;ClassName&lt;/font&gt;&lt;/b&gt;" style="rounded=1;whiteSpace=wrap;html=1;fillColor=#1A1A1A;strokeColor=none;fontColor=default;" parent="1" vertex="1">
                    <mxGeometry x="466" y="-30" width="80" height="30" as="geometry"/>
                </mxCell>
                <mxCell id="47" value="&lt;font color=&quot;#1a1a1a&quot; size=&quot;1&quot;&gt;&lt;b style=&quot;font-size: 13px&quot;&gt;= Abstract class&lt;/b&gt;&lt;/font&gt;" style="text;html=1;strokeColor=none;fillColor=none;align=center;verticalAlign=middle;whiteSpace=wrap;rounded=0;fontSize=14;fontColor=default;" parent="1" vertex="1">
                    <mxGeometry x="546" y="-70" width="120" height="30" as="geometry"/>
                </mxCell>
                <mxCell id="49" value="&lt;font color=&quot;#1a1a1a&quot; size=&quot;1&quot;&gt;&lt;b style=&quot;font-size: 13px&quot;&gt;= Concrete class&lt;/b&gt;&lt;/font&gt;" style="text;html=1;strokeColor=none;fillColor=none;align=center;verticalAlign=middle;whiteSpace=wrap;rounded=0;fontSize=14;fontColor=default;" parent="1" vertex="1">
                    <mxGeometry x="546" y="-30" width="120" height="30" as="geometry"/>
                </mxCell>
                <mxCell id="52" value="&lt;b&gt;&lt;font style=&quot;font-size: 23px&quot;&gt;Inseq Classes Overview&lt;/font&gt;&lt;/b&gt;" style="text;html=1;strokeColor=none;fillColor=none;align=center;verticalAlign=middle;whiteSpace=wrap;rounded=0;fontSize=13;fontColor=#1A1A1A;" parent="1" vertex="1">
                    <mxGeometry x="-230" y="-60" width="280" height="30" as="geometry"/>
                </mxCell>
                <mxCell id="53" value="" style="shape=flexArrow;endArrow=classic;startArrow=classic;html=1;fontSize=23;fontColor=#1A1A1A;strokeColor=#1A1A1A;strokeWidth=2;exitX=0;exitY=0.5;exitDx=0;exitDy=0;entryX=1;entryY=0.5;entryDx=0;entryDy=0;width=6;endSize=7.14;startSize=7.14;endWidth=12;startWidth=12;" parent="1" source="3" target="2" edge="1">
                    <mxGeometry width="100" height="100" relative="1" as="geometry">
                        <mxPoint x="170" y="190" as="sourcePoint"/>
                        <mxPoint x="270" y="90" as="targetPoint"/>
                        <Array as="points">
                            <mxPoint x="220" y="65"/>
                        </Array>
                    </mxGeometry>
                </mxCell>
                <mxCell id="55" value="" style="endArrow=classic;html=1;fontSize=23;fontColor=#1A1A1A;strokeColor=#1A1A1A;strokeWidth=2;" parent="1" edge="1">
                    <mxGeometry width="50" height="50" relative="1" as="geometry">
                        <mxPoint x="483" y="29" as="sourcePoint"/>
                        <mxPoint x="538" y="30" as="targetPoint"/>
                    </mxGeometry>
                </mxCell>
                <mxCell id="57" value="&lt;font color=&quot;#1a1a1a&quot; size=&quot;1&quot;&gt;&lt;b style=&quot;font-size: 13px&quot;&gt;= Inheritance&lt;/b&gt;&lt;/font&gt;" style="text;html=1;strokeColor=none;fillColor=none;align=center;verticalAlign=middle;whiteSpace=wrap;rounded=0;fontSize=14;fontColor=default;" parent="1" vertex="1">
                    <mxGeometry x="528" y="14" width="134" height="30" as="geometry"/>
                </mxCell>
            </root>
        </mxGraphModel>
    </diagram>
</mxfile>
